<svg width="40" height="40" viewBox="0 0 40 40" fill="none" xmlns="http://www.w3.org/2000/svg">
<path d="M33.7933 25.0883L32.5 25.735L31.2066 25.0883C31.0907 25.0303 30.9629 25 30.8333 25C30.7037 25 30.5758 25.0303 30.46 25.0883L29.1666 25.735L28.3333 25.3183V7.49999C28.3333 7.35789 28.2969 7.21814 28.2277 7.09404C28.1585 6.96994 28.0587 6.8656 27.9377 6.79095C27.8168 6.71629 27.6788 6.6738 27.5369 6.6675C27.3949 6.66121 27.2537 6.69133 27.1266 6.75499L25.8333 7.40166L24.54 6.75499C24.4241 6.69692 24.2962 6.66669 24.1666 6.66669C24.037 6.66669 23.9092 6.69692 23.7933 6.75499L22.5 7.40166L21.2066 6.75499C21.0907 6.69692 20.9629 6.66669 20.8333 6.66669C20.7037 6.66669 20.5758 6.69692 20.46 6.75499L19.1666 7.40166L17.8733 6.75499C17.7574 6.69692 17.6296 6.66669 17.5 6.66669C17.3703 6.66669 17.2425 6.69692 17.1266 6.75499L15.8333 7.40166L14.54 6.75499C14.4241 6.69692 14.2962 6.66669 14.1666 6.66669C14.037 6.66669 13.9092 6.69692 13.7933 6.75499L12.5 7.40166L11.2066 6.75499C11.0907 6.69692 10.9629 6.66669 10.8333 6.66669C10.7037 6.66669 10.5758 6.69692 10.46 6.75499L9.16663 7.40166L7.87329 6.75499C7.74624 6.69133 7.60503 6.66121 7.46306 6.6675C7.32109 6.6738 7.18309 6.71629 7.06217 6.79095C6.94126 6.8656 6.84144 6.96994 6.77221 7.09404C6.70298 7.21814 6.66663 7.35789 6.66663 7.49999V30.8333C6.66663 31.9384 7.10561 32.9982 7.88701 33.7796C8.66842 34.561 9.72822 35 10.8333 35H30.8333C31.9384 35 32.9982 34.561 33.7796 33.7796C34.561 32.9982 35 31.9384 35 30.8333V25.8333C35 25.6912 34.9636 25.5515 34.8944 25.4274C34.8251 25.3033 34.7253 25.1989 34.6044 25.1243C34.4835 25.0496 34.3455 25.0071 34.2035 25.0008C34.0616 24.9945 33.9203 25.0247 33.7933 25.0883V25.0883ZM17.5 16.6667C17.4972 17.4035 17.2504 18.1187 16.798 18.7004C16.3457 19.282 15.7134 19.6975 15 19.8817V27.5C15 27.721 14.9122 27.933 14.7559 28.0892C14.5996 28.2455 14.3876 28.3333 14.1666 28.3333C13.9456 28.3333 13.7336 28.2455 13.5774 28.0892C13.4211 27.933 13.3333 27.721 13.3333 27.5V19.8817C12.6198 19.6975 11.9875 19.282 11.5352 18.7004C11.0829 18.1187 10.8361 17.4035 10.8333 16.6667V14.1667C10.8333 13.9456 10.9211 13.7337 11.0774 13.5774C11.2337 13.4211 11.4456 13.3333 11.6666 13.3333C11.8876 13.3333 12.0996 13.4211 12.2559 13.5774C12.4122 13.7337 12.5 13.9456 12.5 14.1667V16.6667C12.5033 16.9541 12.582 17.2356 12.7282 17.483C12.8745 17.7304 13.0831 17.9352 13.3333 18.0767V14.1667C13.3333 13.9456 13.4211 13.7337 13.5774 13.5774C13.7336 13.4211 13.9456 13.3333 14.1666 13.3333C14.3876 13.3333 14.5996 13.4211 14.7559 13.5774C14.9122 13.7337 15 13.9456 15 14.1667V18.0767C15.2501 17.9352 15.4588 17.7304 15.605 17.483C15.7513 17.2356 15.83 16.9541 15.8333 16.6667V14.1667C15.8333 13.9456 15.9211 13.7337 16.0774 13.5774C16.2336 13.4211 16.4456 13.3333 16.6666 13.3333C16.8876 13.3333 17.0996 13.4211 17.2559 13.5774C17.4122 13.7337 17.5 13.9456 17.5 14.1667V16.6667ZM23.2583 23.3783L20.8333 23.985V27.5C20.8333 27.721 20.7455 27.933 20.5892 28.0892C20.4329 28.2455 20.221 28.3333 20 28.3333C19.7789 28.3333 19.567 28.2455 19.4107 28.0892C19.2544 27.933 19.1666 27.721 19.1666 27.5V14.1667C19.1663 14.0016 19.215 13.8402 19.3066 13.7029C19.3981 13.5656 19.5284 13.4585 19.6809 13.3954C19.8333 13.3322 20.0011 13.3157 20.1629 13.3479C20.3248 13.3802 20.4734 13.4598 20.59 13.5767C21.7276 14.7082 22.6295 16.0542 23.2434 17.5367C23.8574 19.0192 24.1712 20.6087 24.1666 22.2133C24.1671 22.4811 24.078 22.7413 23.9133 22.9524C23.7487 23.1636 23.5181 23.3135 23.2583 23.3783V23.3783ZM33.3333 30.8333C33.3333 31.4964 33.0699 32.1322 32.6011 32.6011C32.1322 33.0699 31.4963 33.3333 30.8333 33.3333C30.1703 33.3333 29.5344 33.0699 29.0655 32.6011C28.5967 32.1322 28.3333 31.4964 28.3333 30.8333V27.1817L28.7933 27.4117C28.9092 27.4697 29.037 27.5 29.1666 27.5C29.2962 27.5 29.4241 27.4697 29.54 27.4117L30.8333 26.765L32.1266 27.4117C32.2425 27.4697 32.3703 27.5 32.5 27.5C32.6296 27.5 32.7574 27.4697 32.8733 27.4117L33.3333 27.1817V30.8333Z" fill="#A098AE"/>
</svg>
